<?xml version="1.0" encoding="UTF-8"?><svg xmlns="http://www.w3.org/2000/svg" width="800" height="400" viewBox="0 0 800 400">  <rect x="0" y="0" width="800" height="400" fill="white" stroke="black" stroke-width="3" />  <polyline points="50,390 50.00,307.78 64.58,285.20 79.17,273.43 93.75,240.99 108.33,214.42 122.92,193.07 137.50,172.39 152.08,112.14 166.67,100.57 181.25,74.76 195.83,66.41 210.42,50.00 225.00,59.11 239.58,87.76 254.17,122.49 268.75,147.44 283.33,168.79 297.92,175.05 312.50,165.28 327.08,137.95 341.67,132.64 356.25,141.27 370.83,149.43 385.42,158.54 400.00,171.63 414.58,181.02 429.17,194.12 443.75,239.09 458.33,247.91 472.92,267.84 487.50,273.06 502.08,313.47 516.67,318.60 531.25,321.25 545.83,325.81 560.42,344.21 575.00,350.00 589.58,347.15 604.17,347.15 618.75,344.88 633.33,337.10 647.92,334.35 662.50,337.19 677.08,342.22 691.67,341.75 706.25,338.24 720.83,337.19 735.42,318.03 750.00,307.78 750,390 50,390" style="fill:pink;stroke:red;stroke-width:2" />  <circle cx="50.00" cy="307.78" r="2" fill="red" stroke="black" stroke-width="1" />  <circle cx="64.58" cy="285.20" r="2" fill="red" stroke="black" stroke-width="1" />  <circle cx="79.17" cy="273.43" r="2" fill="red" stroke="black" stroke-width="1" />  <circle cx="93.75" cy="240.99" r="2" fill="red" stroke="black" stroke-width="1" />  <circle cx="108.33" cy="214.42" r="2" fill="red" stroke="black" stroke-width="1" />  <circle cx="122.92" cy="193.07" r="2" fill="red" stroke="black" stroke-width="1" />  <circle cx="137.50" cy="172.39" r="2" fill="red" stroke="black" stroke-width="1" />  <circle cx="152.08" cy="112.14" r="2" fill="red" stroke="black" stroke-width="1" />  <circle cx="166.67" cy="100.57" r="2" fill="red" stroke="black" stroke-width="1" />  <circle cx="181.25" cy="74.76" r="2" fill="red" stroke="black" stroke-width="1" />  <circle cx="195.83" cy="66.41" r="2" fill="red" stroke="black" stroke-width="1" />  <circle cx="210.42" cy="50.00" r="2" fill="red" stroke="black" stroke-width="1" />  <circle cx="225.00" cy="59.11" r="2" fill="red" stroke="black" stroke-width="1" />  <circle cx="239.58" cy="87.76" r="2" fill="red" stroke="black" stroke-width="1" />  <circle cx="254.17" cy="122.49" r="2" fill="red" stroke="black" stroke-width="1" />  <circle cx="268.75" cy="147.44" r="2" fill="red" stroke="black" stroke-width="1" />  <circle cx="283.33" cy="168.79" r="2" fill="red" stroke="black" stroke-width="1" />  <circle cx="297.92" cy="175.05" r="2" fill="red" stroke="black" stroke-width="1" />  <circle cx="312.50" cy="165.28" r="2" fill="red" stroke="black" stroke-width="1" />  <circle cx="327.08" cy="137.95" r="2" fill="red" stroke="black" stroke-width="1" />  <circle cx="341.67" cy="132.64" r="2" fill="red" stroke="black" stroke-width="1" />  <circle cx="356.25" cy="141.27" r="2" fill="red" stroke="black" stroke-width="1" />  <circle cx="370.83" cy="149.43" r="2" fill="red" stroke="black" stroke-width="1" />  <circle cx="385.42" cy="158.54" r="2" fill="red" stroke="black" stroke-width="1" />  <circle cx="400.00" cy="171.63" r="2" fill="red" stroke="black" stroke-width="1" />  <circle cx="414.58" cy="181.02" r="2" fill="red" stroke="black" stroke-width="1" />  <circle cx="429.17" cy="194.12" r="2" fill="red" stroke="black" stroke-width="1" />  <circle cx="443.75" cy="239.09" r="2" fill="red" stroke="black" stroke-width="1" />  <circle cx="458.33" cy="247.91" r="2" fill="red" stroke="black" stroke-width="1" />  <circle cx="472.92" cy="267.84" r="2" fill="red" stroke="black" stroke-width="1" />  <circle cx="487.50" cy="273.06" r="2" fill="red" stroke="black" stroke-width="1" />  <circle cx="502.08" cy="313.47" r="2" fill="red" stroke="black" stroke-width="1" />  <circle cx="516.67" cy="318.60" r="2" fill="red" stroke="black" stroke-width="1" />  <circle cx="531.25" cy="321.25" r="2" fill="red" stroke="black" stroke-width="1" />  <circle cx="545.83" cy="325.81" r="2" fill="red" stroke="black" stroke-width="1" />  <circle cx="560.42" cy="344.21" r="2" fill="red" stroke="black" stroke-width="1" />  <circle cx="575.00" cy="350.00" r="2" fill="red" stroke="black" stroke-width="1" />  <circle cx="589.58" cy="347.15" r="2" fill="red" stroke="black" stroke-width="1" />  <circle cx="604.17" cy="347.15" r="2" fill="red" stroke="black" stroke-width="1" />  <circle cx="618.75" cy="344.88" r="2" fill="red" stroke="black" stroke-width="1" />  <circle cx="633.33" cy="337.10" r="2" fill="red" stroke="black" stroke-width="1" />  <circle cx="647.92" cy="334.35" r="2" fill="red" stroke="black" stroke-width="1" />  <circle cx="662.50" cy="337.19" r="2" fill="red" stroke="black" stroke-width="1" />  <circle cx="677.08" cy="342.22" r="2" fill="red" stroke="black" stroke-width="1" />  <circle cx="691.67" cy="341.75" r="2" fill="red" stroke="black" stroke-width="1" />  <circle cx="706.25" cy="338.24" r="2" fill="red" stroke="black" stroke-width="1" />  <circle cx="720.83" cy="337.19" r="2" fill="red" stroke="black" stroke-width="1" />  <circle cx="735.42" cy="318.03" r="2" fill="red" stroke="black" stroke-width="1" />  <circle cx="750.00" cy="307.78" r="2" fill="red" stroke="black" stroke-width="1" /></svg>